<?xml version="1.0" encoding="utf-8" standalone="no"?>
<!DOCTYPE svg PUBLIC "-//W3C//DTD SVG 1.1//EN"
  "http://www.w3.org/Graphics/SVG/1.1/DTD/svg11.dtd">
<!-- Created with matplotlib (https://matplotlib.org/) -->
<svg height="504pt" version="1.1" viewBox="0 0 504 504" width="504pt" xmlns="http://www.w3.org/2000/svg" xmlns:xlink="http://www.w3.org/1999/xlink">
 <defs>
  <style type="text/css">
*{stroke-linecap:butt;stroke-linejoin:round;white-space:pre;}
  </style>
 </defs>
 <g id="figure_1">
  <g id="patch_1">
   <path d="M 0 504 
L 504 504 
L 504 0 
L 0 0 
z
" style="fill:none;"/>
  </g>
  <g id="axes_1">
   <g id="patch_2">
    <path d="M 63 441 
L 453.6 441 
L 453.6 60.48 
L 63 60.48 
z
" style="fill:none;"/>
   </g>
   <g id="matplotlib.axis_1">
    <g id="xtick_1">
     <g id="line2d_1">
      <defs>
       <path d="M 0 0 
L 0 3.5 
" id="m003e9f1acd" style="stroke:#000000;stroke-width:0.8;"/>
      </defs>
      <g>
       <use style="stroke:#000000;stroke-width:0.8;" x="121.726573" xlink:href="#m003e9f1acd" y="441"/>
      </g>
     </g>
     <g id="text_1">
      <!-- −1 -->
      <defs>
       <path d="M 10.59375 35.5 
L 73.1875 35.5 
L 73.1875 27.203125 
L 10.59375 27.203125 
z
" id="DejaVuSans-8722"/>
       <path d="M 12.40625 8.296875 
L 28.515625 8.296875 
L 28.515625 63.921875 
L 10.984375 60.40625 
L 10.984375 69.390625 
L 28.421875 72.90625 
L 38.28125 72.90625 
L 38.28125 8.296875 
L 54.390625 8.296875 
L 54.390625 0 
L 12.40625 0 
z
" id="DejaVuSans-49"/>
      </defs>
      <g transform="translate(114.35548 455.598437)scale(0.1 -0.1)">
       <use xlink:href="#DejaVuSans-8722"/>
       <use x="83.789062" xlink:href="#DejaVuSans-49"/>
      </g>
     </g>
    </g>
    <g id="xtick_2">
     <g id="line2d_2">
      <g>
       <use style="stroke:#000000;stroke-width:0.8;" x="258.3" xlink:href="#m003e9f1acd" y="441"/>
      </g>
     </g>
     <g id="text_2">
      <!-- 0 -->
      <defs>
       <path d="M 31.78125 66.40625 
Q 24.171875 66.40625 20.328125 58.90625 
Q 16.5 51.421875 16.5 36.375 
Q 16.5 21.390625 20.328125 13.890625 
Q 24.171875 6.390625 31.78125 6.390625 
Q 39.453125 6.390625 43.28125 13.890625 
Q 47.125 21.390625 47.125 36.375 
Q 47.125 51.421875 43.28125 58.90625 
Q 39.453125 66.40625 31.78125 66.40625 
z
M 31.78125 74.21875 
Q 44.046875 74.21875 50.515625 64.515625 
Q 56.984375 54.828125 56.984375 36.375 
Q 56.984375 17.96875 50.515625 8.265625 
Q 44.046875 -1.421875 31.78125 -1.421875 
Q 19.53125 -1.421875 13.0625 8.265625 
Q 6.59375 17.96875 6.59375 36.375 
Q 6.59375 54.828125 13.0625 64.515625 
Q 19.53125 74.21875 31.78125 74.21875 
z
" id="DejaVuSans-48"/>
      </defs>
      <g transform="translate(255.11875 455.598437)scale(0.1 -0.1)">
       <use xlink:href="#DejaVuSans-48"/>
      </g>
     </g>
    </g>
    <g id="xtick_3">
     <g id="line2d_3">
      <g>
       <use style="stroke:#000000;stroke-width:0.8;" x="394.873427" xlink:href="#m003e9f1acd" y="441"/>
      </g>
     </g>
     <g id="text_3">
      <!-- 1 -->
      <g transform="translate(391.692177 455.598437)scale(0.1 -0.1)">
       <use xlink:href="#DejaVuSans-49"/>
      </g>
     </g>
    </g>
    <g id="text_4">
     <!-- $x$ -->
     <defs>
      <path d="M 60.015625 54.6875 
L 34.90625 27.875 
L 50.296875 0 
L 39.984375 0 
L 28.421875 21.6875 
L 8.296875 0 
L -2.59375 0 
L 24.3125 28.8125 
L 10.015625 54.6875 
L 20.3125 54.6875 
L 30.8125 34.90625 
L 49.125 54.6875 
z
" id="DejaVuSans-Oblique-120"/>
     </defs>
     <g transform="translate(252.3 476.875)scale(0.2 -0.2)">
      <use transform="translate(0 0.3125)" xlink:href="#DejaVuSans-Oblique-120"/>
     </g>
    </g>
   </g>
   <g id="matplotlib.axis_2">
    <g id="ytick_1">
     <g id="line2d_4">
      <defs>
       <path d="M 0 0 
L -3.5 0 
" id="m593ec58f8a" style="stroke:#000000;stroke-width:0.8;"/>
      </defs>
      <g>
       <use style="stroke:#000000;stroke-width:0.8;" x="63" xlink:href="#m593ec58f8a" y="441"/>
      </g>
     </g>
     <g id="text_5">
      <!-- −4 -->
      <defs>
       <path d="M 37.796875 64.3125 
L 12.890625 25.390625 
L 37.796875 25.390625 
z
M 35.203125 72.90625 
L 47.609375 72.90625 
L 47.609375 25.390625 
L 58.015625 25.390625 
L 58.015625 17.1875 
L 47.609375 17.1875 
L 47.609375 0 
L 37.796875 0 
L 37.796875 17.1875 
L 4.890625 17.1875 
L 4.890625 26.703125 
z
" id="DejaVuSans-52"/>
      </defs>
      <g transform="translate(41.257812 444.799219)scale(0.1 -0.1)">
       <use xlink:href="#DejaVuSans-8722"/>
       <use x="83.789062" xlink:href="#DejaVuSans-52"/>
      </g>
     </g>
    </g>
    <g id="ytick_2">
     <g id="line2d_5">
      <g>
       <use style="stroke:#000000;stroke-width:0.8;" x="63" xlink:href="#m593ec58f8a" y="386.64"/>
      </g>
     </g>
     <g id="text_6">
      <!-- −3 -->
      <defs>
       <path d="M 40.578125 39.3125 
Q 47.65625 37.796875 51.625 33 
Q 55.609375 28.21875 55.609375 21.1875 
Q 55.609375 10.40625 48.1875 4.484375 
Q 40.765625 -1.421875 27.09375 -1.421875 
Q 22.515625 -1.421875 17.65625 -0.515625 
Q 12.796875 0.390625 7.625 2.203125 
L 7.625 11.71875 
Q 11.71875 9.328125 16.59375 8.109375 
Q 21.484375 6.890625 26.8125 6.890625 
Q 36.078125 6.890625 40.9375 10.546875 
Q 45.796875 14.203125 45.796875 21.1875 
Q 45.796875 27.640625 41.28125 31.265625 
Q 36.765625 34.90625 28.71875 34.90625 
L 20.21875 34.90625 
L 20.21875 43.015625 
L 29.109375 43.015625 
Q 36.375 43.015625 40.234375 45.921875 
Q 44.09375 48.828125 44.09375 54.296875 
Q 44.09375 59.90625 40.109375 62.90625 
Q 36.140625 65.921875 28.71875 65.921875 
Q 24.65625 65.921875 20.015625 65.03125 
Q 15.375 64.15625 9.8125 62.3125 
L 9.8125 71.09375 
Q 15.4375 72.65625 20.34375 73.4375 
Q 25.25 74.21875 29.59375 74.21875 
Q 40.828125 74.21875 47.359375 69.109375 
Q 53.90625 64.015625 53.90625 55.328125 
Q 53.90625 49.265625 50.4375 45.09375 
Q 46.96875 40.921875 40.578125 39.3125 
z
" id="DejaVuSans-51"/>
      </defs>
      <g transform="translate(41.257812 390.439219)scale(0.1 -0.1)">
       <use xlink:href="#DejaVuSans-8722"/>
       <use x="83.789062" xlink:href="#DejaVuSans-51"/>
      </g>
     </g>
    </g>
    <g id="ytick_3">
     <g id="line2d_6">
      <g>
       <use style="stroke:#000000;stroke-width:0.8;" x="63" xlink:href="#m593ec58f8a" y="332.28"/>
      </g>
     </g>
     <g id="text_7">
      <!-- −2 -->
      <defs>
       <path d="M 19.1875 8.296875 
L 53.609375 8.296875 
L 53.609375 0 
L 7.328125 0 
L 7.328125 8.296875 
Q 12.9375 14.109375 22.625 23.890625 
Q 32.328125 33.6875 34.8125 36.53125 
Q 39.546875 41.84375 41.421875 45.53125 
Q 43.3125 49.21875 43.3125 52.78125 
Q 43.3125 58.59375 39.234375 62.25 
Q 35.15625 65.921875 28.609375 65.921875 
Q 23.96875 65.921875 18.8125 64.3125 
Q 13.671875 62.703125 7.8125 59.421875 
L 7.8125 69.390625 
Q 13.765625 71.78125 18.9375 73 
Q 24.125 74.21875 28.421875 74.21875 
Q 39.75 74.21875 46.484375 68.546875 
Q 53.21875 62.890625 53.21875 53.421875 
Q 53.21875 48.921875 51.53125 44.890625 
Q 49.859375 40.875 45.40625 35.40625 
Q 44.1875 33.984375 37.640625 27.21875 
Q 31.109375 20.453125 19.1875 8.296875 
z
" id="DejaVuSans-50"/>
      </defs>
      <g transform="translate(41.257812 336.079219)scale(0.1 -0.1)">
       <use xlink:href="#DejaVuSans-8722"/>
       <use x="83.789062" xlink:href="#DejaVuSans-50"/>
      </g>
     </g>
    </g>
    <g id="ytick_4">
     <g id="line2d_7">
      <g>
       <use style="stroke:#000000;stroke-width:0.8;" x="63" xlink:href="#m593ec58f8a" y="277.92"/>
      </g>
     </g>
     <g id="text_8">
      <!-- −1 -->
      <g transform="translate(41.257812 281.719219)scale(0.1 -0.1)">
       <use xlink:href="#DejaVuSans-8722"/>
       <use x="83.789062" xlink:href="#DejaVuSans-49"/>
      </g>
     </g>
    </g>
    <g id="ytick_5">
     <g id="line2d_8">
      <g>
       <use style="stroke:#000000;stroke-width:0.8;" x="63" xlink:href="#m593ec58f8a" y="223.56"/>
      </g>
     </g>
     <g id="text_9">
      <!-- 0 -->
      <g transform="translate(49.6375 227.359219)scale(0.1 -0.1)">
       <use xlink:href="#DejaVuSans-48"/>
      </g>
     </g>
    </g>
    <g id="ytick_6">
     <g id="line2d_9">
      <g>
       <use style="stroke:#000000;stroke-width:0.8;" x="63" xlink:href="#m593ec58f8a" y="169.2"/>
      </g>
     </g>
     <g id="text_10">
      <!-- 1 -->
      <g transform="translate(49.6375 172.999219)scale(0.1 -0.1)">
       <use xlink:href="#DejaVuSans-49"/>
      </g>
     </g>
    </g>
    <g id="ytick_7">
     <g id="line2d_10">
      <g>
       <use style="stroke:#000000;stroke-width:0.8;" x="63" xlink:href="#m593ec58f8a" y="114.84"/>
      </g>
     </g>
     <g id="text_11">
      <!-- 2 -->
      <g transform="translate(49.6375 118.639219)scale(0.1 -0.1)">
       <use xlink:href="#DejaVuSans-50"/>
      </g>
     </g>
    </g>
    <g id="ytick_8">
     <g id="line2d_11">
      <g>
       <use style="stroke:#000000;stroke-width:0.8;" x="63" xlink:href="#m593ec58f8a" y="60.48"/>
      </g>
     </g>
     <g id="text_12">
      <!-- 3 -->
      <g transform="translate(49.6375 64.279219)scale(0.1 -0.1)">
       <use xlink:href="#DejaVuSans-51"/>
      </g>
     </g>
    </g>
    <g id="text_13">
     <!-- $f(x)$ -->
     <defs>
      <path d="M 47.796875 75.984375 
L 46.390625 68.5 
L 37.796875 68.5 
Q 32.90625 68.5 30.6875 66.578125 
Q 28.46875 64.65625 27.390625 59.515625 
L 26.421875 54.6875 
L 41.21875 54.6875 
L 39.890625 47.703125 
L 25.09375 47.703125 
L 15.828125 0 
L 6.78125 0 
L 16.109375 47.703125 
L 7.515625 47.703125 
L 8.796875 54.6875 
L 17.390625 54.6875 
L 18.109375 58.5 
Q 19.96875 68.171875 24.625 72.078125 
Q 29.296875 75.984375 39.3125 75.984375 
z
" id="DejaVuSans-Oblique-102"/>
      <path d="M 31 75.875 
Q 24.46875 64.65625 21.28125 53.65625 
Q 18.109375 42.671875 18.109375 31.390625 
Q 18.109375 20.125 21.3125 9.0625 
Q 24.515625 -2 31 -13.1875 
L 23.1875 -13.1875 
Q 15.875 -1.703125 12.234375 9.375 
Q 8.59375 20.453125 8.59375 31.390625 
Q 8.59375 42.28125 12.203125 53.3125 
Q 15.828125 64.359375 23.1875 75.875 
z
" id="DejaVuSans-40"/>
      <path d="M 8.015625 75.875 
L 15.828125 75.875 
Q 23.140625 64.359375 26.78125 53.3125 
Q 30.421875 42.28125 30.421875 31.390625 
Q 30.421875 20.453125 26.78125 9.375 
Q 23.140625 -1.703125 15.828125 -13.1875 
L 8.015625 -13.1875 
Q 14.5 -2 17.703125 9.0625 
Q 20.90625 20.125 20.90625 31.390625 
Q 20.90625 42.671875 17.703125 53.65625 
Q 14.5 64.65625 8.015625 75.875 
z
" id="DejaVuSans-41"/>
     </defs>
     <g transform="translate(33.098438 268.04)rotate(-90)scale(0.2 -0.2)">
      <use transform="translate(0 0.015625)" xlink:href="#DejaVuSans-Oblique-102"/>
      <use transform="translate(35.205078 0.015625)" xlink:href="#DejaVuSans-40"/>
      <use transform="translate(74.21875 0.015625)" xlink:href="#DejaVuSans-Oblique-120"/>
      <use transform="translate(133.398438 0.015625)" xlink:href="#DejaVuSans-41"/>
     </g>
    </g>
   </g>
   <g id="line2d_12">
    <path clip-path="url(#p34539c6579)" d="M 80.754545 340.601877 
L 84.341322 339.167193 
L 87.928099 337.714436 
L 91.514876 336.243605 
L 95.101653 334.7547 
L 98.68843 333.247722 
L 102.275207 331.722669 
L 105.861983 330.179543 
L 109.44876 328.618342 
L 113.035537 327.039068 
L 116.622314 325.44172 
L 120.209091 323.826298 
L 123.795868 322.192802 
L 127.382645 320.541233 
L 130.969421 318.871589 
L 134.556198 317.183872 
L 138.142975 315.478081 
L 141.729752 313.754216 
L 145.316529 312.012277 
L 148.903306 310.252264 
L 152.490083 308.474178 
L 156.07686 306.678017 
L 159.663636 304.863783 
L 163.250413 303.031475 
L 166.83719 301.181093 
L 170.423967 299.312637 
L 174.010744 297.426107 
L 177.597521 295.521503 
L 181.184298 293.598826 
L 184.771074 291.658075 
L 188.357851 289.69925 
L 191.944628 287.722351 
L 195.531405 285.727378 
L 199.118182 283.714331 
L 202.704959 281.68321 
L 206.291736 279.634016 
L 209.878512 277.566748 
L 213.465289 275.481406 
L 217.052066 273.37799 
L 220.638843 271.2565 
L 224.22562 269.116936 
L 227.812397 266.959298 
L 231.399174 264.783587 
L 234.98595 262.589802 
L 238.572727 260.377943 
L 242.159504 258.14801 
L 245.746281 255.900003 
L 249.333058 253.633922 
L 252.919835 251.349767 
L 256.506612 249.047539 
L 260.093388 246.727237 
L 263.680165 244.388861 
L 267.266942 242.032411 
L 270.853719 239.657887 
L 274.440496 237.265289 
L 278.027273 234.854618 
L 281.61405 232.425872 
L 285.200826 229.979053 
L 288.787603 227.51416 
L 292.37438 225.031193 
L 295.961157 222.530152 
L 299.547934 220.011037 
L 303.134711 217.473849 
L 306.721488 214.918586 
L 310.308264 212.34525 
L 313.895041 209.75384 
L 317.481818 207.144356 
L 321.068595 204.516798 
L 324.655372 201.871167 
L 328.242149 199.207461 
L 331.828926 196.525682 
L 335.415702 193.825828 
L 339.002479 191.107901 
L 342.589256 188.3719 
L 346.176033 185.617826 
L 349.76281 182.845677 
L 353.349587 180.055454 
L 356.936364 177.247158 
L 360.52314 174.420788 
L 364.109917 171.576344 
L 367.696694 168.713826 
L 371.283471 165.833234 
L 374.870248 162.934568 
L 378.457025 160.017829 
L 382.043802 157.083016 
L 385.630579 154.130128 
L 389.217355 151.159167 
L 392.804132 148.170132 
L 396.390909 145.163023 
L 399.977686 142.137841 
L 403.564463 139.094584 
L 407.15124 136.033254 
L 410.738017 132.95385 
L 414.324793 129.856372 
L 417.91157 126.74082 
L 421.498347 123.607194 
L 425.085124 120.455494 
L 428.671901 117.285721 
L 432.258678 114.097874 
L 435.845455 110.891952 
" style="fill:none;stroke:#0000ff;stroke-linecap:square;stroke-width:3;"/>
   </g>
   <g id="line2d_13">
    <path clip-path="url(#p34539c6579)" d="M 80.754545 169.2 
L 84.341322 169.2 
L 87.928099 169.2 
L 91.514876 169.2 
L 95.101653 169.2 
L 98.68843 169.2 
L 102.275207 169.2 
L 105.861983 169.2 
L 109.44876 169.2 
L 113.035537 169.2 
L 116.622314 169.2 
L 120.209091 169.2 
L 123.795868 169.2 
L 127.382645 169.2 
L 130.969421 169.2 
L 134.556198 169.2 
L 138.142975 169.2 
L 141.729752 169.2 
L 145.316529 169.2 
L 148.903306 169.2 
L 152.490083 169.2 
L 156.07686 169.2 
L 159.663636 169.2 
L 163.250413 169.2 
L 166.83719 169.2 
L 170.423967 169.2 
L 174.010744 169.2 
L 177.597521 169.2 
L 181.184298 169.2 
L 184.771074 169.2 
L 188.357851 169.2 
L 191.944628 169.2 
L 195.531405 169.2 
L 199.118182 169.2 
L 202.704959 169.2 
L 206.291736 169.2 
L 209.878512 169.2 
L 213.465289 169.2 
L 217.052066 169.2 
L 220.638843 169.2 
L 224.22562 169.2 
L 227.812397 169.2 
L 231.399174 169.2 
L 234.98595 169.2 
L 238.572727 169.2 
L 242.159504 169.2 
L 245.746281 169.2 
L 249.333058 169.2 
L 252.919835 169.2 
L 256.506612 169.2 
L 260.093388 169.2 
L 263.680165 169.2 
L 267.266942 169.2 
L 270.853719 169.2 
L 274.440496 169.2 
L 278.027273 169.2 
L 281.61405 169.2 
L 285.200826 169.2 
L 288.787603 169.2 
L 292.37438 169.2 
L 295.961157 169.2 
L 299.547934 169.2 
L 303.134711 169.2 
L 306.721488 169.2 
L 310.308264 169.2 
L 313.895041 169.2 
L 317.481818 169.2 
L 321.068595 169.2 
L 324.655372 169.2 
L 328.242149 169.2 
L 331.828926 169.2 
L 335.415702 169.2 
L 339.002479 169.2 
L 342.589256 169.2 
L 346.176033 169.2 
L 349.76281 169.2 
L 353.349587 169.2 
L 356.936364 169.2 
L 360.52314 169.2 
L 364.109917 169.2 
L 367.696694 169.2 
L 371.283471 169.2 
L 374.870248 169.2 
L 378.457025 169.2 
L 382.043802 169.2 
L 385.630579 169.2 
L 389.217355 169.2 
L 392.804132 169.2 
L 396.390909 169.2 
L 399.977686 169.2 
L 403.564463 169.2 
L 407.15124 169.2 
L 410.738017 169.2 
L 414.324793 169.2 
L 417.91157 169.2 
L 421.498347 169.2 
L 425.085124 169.2 
L 428.671901 169.2 
L 432.258678 169.2 
L 435.845455 169.2 
" style="fill:none;stroke:#ff0000;stroke-linecap:square;"/>
   </g>
   <g id="line2d_14">
    <path clip-path="url(#p34539c6579)" d="M 80.754545 294.228 
L 84.341322 292.800364 
L 87.928099 291.372727 
L 91.514876 289.945091 
L 95.101653 288.517455 
L 98.68843 287.089818 
L 102.275207 285.662182 
L 105.861983 284.234545 
L 109.44876 282.806909 
L 113.035537 281.379273 
L 116.622314 279.951636 
L 120.209091 278.524 
L 123.795868 277.096364 
L 127.382645 275.668727 
L 130.969421 274.241091 
L 134.556198 272.813455 
L 138.142975 271.385818 
L 141.729752 269.958182 
L 145.316529 268.530545 
L 148.903306 267.102909 
L 152.490083 265.675273 
L 156.07686 264.247636 
L 159.663636 262.82 
L 163.250413 261.392364 
L 166.83719 259.964727 
L 170.423967 258.537091 
L 174.010744 257.109455 
L 177.597521 255.681818 
L 181.184298 254.254182 
L 184.771074 252.826545 
L 188.357851 251.398909 
L 191.944628 249.971273 
L 195.531405 248.543636 
L 199.118182 247.116 
L 202.704959 245.688364 
L 206.291736 244.260727 
L 209.878512 242.833091 
L 213.465289 241.405455 
L 217.052066 239.977818 
L 220.638843 238.550182 
L 224.22562 237.122545 
L 227.812397 235.694909 
L 231.399174 234.267273 
L 234.98595 232.839636 
L 238.572727 231.412 
L 242.159504 229.984364 
L 245.746281 228.556727 
L 249.333058 227.129091 
L 252.919835 225.701455 
L 256.506612 224.273818 
L 260.093388 222.846182 
L 263.680165 221.418545 
L 267.266942 219.990909 
L 270.853719 218.563273 
L 274.440496 217.135636 
L 278.027273 215.708 
L 281.61405 214.280364 
L 285.200826 212.852727 
L 288.787603 211.425091 
L 292.37438 209.997455 
L 295.961157 208.569818 
L 299.547934 207.142182 
L 303.134711 205.714545 
L 306.721488 204.286909 
L 310.308264 202.859273 
L 313.895041 201.431636 
L 317.481818 200.004 
L 321.068595 198.576364 
L 324.655372 197.148727 
L 328.242149 195.721091 
L 331.828926 194.293455 
L 335.415702 192.865818 
L 339.002479 191.438182 
L 342.589256 190.010545 
L 346.176033 188.582909 
L 349.76281 187.155273 
L 353.349587 185.727636 
L 356.936364 184.3 
L 360.52314 182.872364 
L 364.109917 181.444727 
L 367.696694 180.017091 
L 371.283471 178.589455 
L 374.870248 177.161818 
L 378.457025 175.734182 
L 382.043802 174.306545 
L 385.630579 172.878909 
L 389.217355 171.451273 
L 392.804132 170.023636 
L 396.390909 168.596 
L 399.977686 167.168364 
L 403.564463 165.740727 
L 407.15124 164.313091 
L 410.738017 162.885455 
L 414.324793 161.457818 
L 417.91157 160.030182 
L 421.498347 158.602545 
L 425.085124 157.174909 
L 428.671901 155.747273 
L 432.258678 154.319636 
L 435.845455 152.892 
" style="fill:none;stroke:#ff00ff;stroke-linecap:square;"/>
   </g>
   <g id="line2d_15">
    <path clip-path="url(#p34539c6579)" d="M 80.754545 131.6916 
L 84.341322 135.365961 
L 87.928099 138.965335 
L 91.514876 142.489722 
L 95.101653 145.939122 
L 98.68843 149.313536 
L 102.275207 152.612962 
L 105.861983 155.837401 
L 109.44876 158.986854 
L 113.035537 162.061319 
L 116.622314 165.060797 
L 120.209091 167.985289 
L 123.795868 170.834793 
L 127.382645 173.609311 
L 130.969421 176.308842 
L 134.556198 178.933385 
L 138.142975 181.482942 
L 141.729752 183.957511 
L 145.316529 186.357094 
L 148.903306 188.68169 
L 152.490083 190.931299 
L 156.07686 193.105921 
L 159.663636 195.205556 
L 163.250413 197.230203 
L 166.83719 199.179864 
L 170.423967 201.054538 
L 174.010744 202.854226 
L 177.597521 204.578926 
L 181.184298 206.228639 
L 184.771074 207.803365 
L 188.357851 209.303104 
L 191.944628 210.727856 
L 195.531405 212.077622 
L 199.118182 213.3524 
L 202.704959 214.552191 
L 206.291736 215.676996 
L 209.878512 216.726813 
L 213.465289 217.701644 
L 217.052066 218.601487 
L 220.638843 219.426344 
L 224.22562 220.176213 
L 227.812397 220.851096 
L 231.399174 221.450992 
L 234.98595 221.9759 
L 238.572727 222.425822 
L 242.159504 222.800757 
L 245.746281 223.100705 
L 249.333058 223.325666 
L 252.919835 223.47564 
L 256.506612 223.550627 
L 260.093388 223.550627 
L 263.680165 223.47564 
L 267.266942 223.325666 
L 270.853719 223.100705 
L 274.440496 222.800757 
L 278.027273 222.425822 
L 281.61405 221.9759 
L 285.200826 221.450992 
L 288.787603 220.851096 
L 292.37438 220.176213 
L 295.961157 219.426344 
L 299.547934 218.601487 
L 303.134711 217.701644 
L 306.721488 216.726813 
L 310.308264 215.676996 
L 313.895041 214.552191 
L 317.481818 213.3524 
L 321.068595 212.077622 
L 324.655372 210.727856 
L 328.242149 209.303104 
L 331.828926 207.803365 
L 335.415702 206.228639 
L 339.002479 204.578926 
L 342.589256 202.854226 
L 346.176033 201.054538 
L 349.76281 199.179864 
L 353.349587 197.230203 
L 356.936364 195.205556 
L 360.52314 193.105921 
L 364.109917 190.931299 
L 367.696694 188.68169 
L 371.283471 186.357094 
L 374.870248 183.957511 
L 378.457025 181.482942 
L 382.043802 178.933385 
L 385.630579 176.308842 
L 389.217355 173.609311 
L 392.804132 170.834793 
L 396.390909 167.985289 
L 399.977686 165.060797 
L 403.564463 162.061319 
L 407.15124 158.986854 
L 410.738017 155.837401 
L 414.324793 152.612962 
L 417.91157 149.313536 
L 421.498347 145.939122 
L 425.085124 142.489722 
L 428.671901 138.965335 
L 432.258678 135.365961 
L 435.845455 131.6916 
" style="fill:none;stroke:#0000ff;stroke-linecap:square;"/>
   </g>
   <g id="patch_3">
    <path d="M 63 441 
L 63 60.48 
" style="fill:none;stroke:#000000;stroke-linecap:square;stroke-linejoin:miter;stroke-width:0.8;"/>
   </g>
   <g id="patch_4">
    <path d="M 453.6 441 
L 453.6 60.48 
" style="fill:none;stroke:#000000;stroke-linecap:square;stroke-linejoin:miter;stroke-width:0.8;"/>
   </g>
   <g id="patch_5">
    <path d="M 63 441 
L 453.6 441 
" style="fill:none;stroke:#000000;stroke-linecap:square;stroke-linejoin:miter;stroke-width:0.8;"/>
   </g>
   <g id="patch_6">
    <path d="M 63 60.48 
L 453.6 60.48 
" style="fill:none;stroke:#000000;stroke-linecap:square;stroke-linejoin:miter;stroke-width:0.8;"/>
   </g>
   <g id="text_14">
    <!-- $w_0 = [-0.44756525]$ -->
    <defs>
     <path d="M 8.5 54.6875 
L 17.390625 54.6875 
L 19.671875 10.6875 
L 40.09375 54.6875 
L 50.484375 54.6875 
L 53.515625 10.6875 
L 72.90625 54.6875 
L 81.890625 54.6875 
L 56.890625 0 
L 46.390625 0 
L 43.703125 45.3125 
L 22.796875 0 
L 12.203125 0 
z
" id="DejaVuSans-Oblique-119"/>
     <path d="M 10.59375 45.40625 
L 73.1875 45.40625 
L 73.1875 37.203125 
L 10.59375 37.203125 
z
M 10.59375 25.484375 
L 73.1875 25.484375 
L 73.1875 17.1875 
L 10.59375 17.1875 
z
" id="DejaVuSans-61"/>
     <path d="M 8.59375 75.984375 
L 29.296875 75.984375 
L 29.296875 69 
L 17.578125 69 
L 17.578125 -6.203125 
L 29.296875 -6.203125 
L 29.296875 -13.1875 
L 8.59375 -13.1875 
z
" id="DejaVuSans-91"/>
     <path d="M 10.6875 12.40625 
L 21 12.40625 
L 21 0 
L 10.6875 0 
z
" id="DejaVuSans-46"/>
     <path d="M 8.203125 72.90625 
L 55.078125 72.90625 
L 55.078125 68.703125 
L 28.609375 0 
L 18.3125 0 
L 43.21875 64.59375 
L 8.203125 64.59375 
z
" id="DejaVuSans-55"/>
     <path d="M 10.796875 72.90625 
L 49.515625 72.90625 
L 49.515625 64.59375 
L 19.828125 64.59375 
L 19.828125 46.734375 
Q 21.96875 47.46875 24.109375 47.828125 
Q 26.265625 48.1875 28.421875 48.1875 
Q 40.625 48.1875 47.75 41.5 
Q 54.890625 34.8125 54.890625 23.390625 
Q 54.890625 11.625 47.5625 5.09375 
Q 40.234375 -1.421875 26.90625 -1.421875 
Q 22.3125 -1.421875 17.546875 -0.640625 
Q 12.796875 0.140625 7.71875 1.703125 
L 7.71875 11.625 
Q 12.109375 9.234375 16.796875 8.0625 
Q 21.484375 6.890625 26.703125 6.890625 
Q 35.15625 6.890625 40.078125 11.328125 
Q 45.015625 15.765625 45.015625 23.390625 
Q 45.015625 31 40.078125 35.4375 
Q 35.15625 39.890625 26.703125 39.890625 
Q 22.75 39.890625 18.8125 39.015625 
Q 14.890625 38.140625 10.796875 36.28125 
z
" id="DejaVuSans-53"/>
     <path d="M 33.015625 40.375 
Q 26.375 40.375 22.484375 35.828125 
Q 18.609375 31.296875 18.609375 23.390625 
Q 18.609375 15.53125 22.484375 10.953125 
Q 26.375 6.390625 33.015625 6.390625 
Q 39.65625 6.390625 43.53125 10.953125 
Q 47.40625 15.53125 47.40625 23.390625 
Q 47.40625 31.296875 43.53125 35.828125 
Q 39.65625 40.375 33.015625 40.375 
z
M 52.59375 71.296875 
L 52.59375 62.3125 
Q 48.875 64.0625 45.09375 64.984375 
Q 41.3125 65.921875 37.59375 65.921875 
Q 27.828125 65.921875 22.671875 59.328125 
Q 17.53125 52.734375 16.796875 39.40625 
Q 19.671875 43.65625 24.015625 45.921875 
Q 28.375 48.1875 33.59375 48.1875 
Q 44.578125 48.1875 50.953125 41.515625 
Q 57.328125 34.859375 57.328125 23.390625 
Q 57.328125 12.15625 50.6875 5.359375 
Q 44.046875 -1.421875 33.015625 -1.421875 
Q 20.359375 -1.421875 13.671875 8.265625 
Q 6.984375 17.96875 6.984375 36.375 
Q 6.984375 53.65625 15.1875 63.9375 
Q 23.390625 74.21875 37.203125 74.21875 
Q 40.921875 74.21875 44.703125 73.484375 
Q 48.484375 72.75 52.59375 71.296875 
z
" id="DejaVuSans-54"/>
     <path d="M 30.421875 75.984375 
L 30.421875 -13.1875 
L 9.71875 -13.1875 
L 9.71875 -6.203125 
L 21.390625 -6.203125 
L 21.390625 69 
L 9.71875 69 
L 9.71875 75.984375 
z
" id="DejaVuSans-93"/>
    </defs>
    <g transform="translate(156.4 147.456)scale(0.2 -0.2)">
     <use transform="translate(0 0.015625)" xlink:href="#DejaVuSans-Oblique-119"/>
     <use transform="translate(81.787109 -16.390625)scale(0.7)" xlink:href="#DejaVuSans-48"/>
     <use transform="translate(148.540039 0.015625)" xlink:href="#DejaVuSans-61"/>
     <use transform="translate(251.811523 0.015625)" xlink:href="#DejaVuSans-91"/>
     <use transform="translate(290.825195 0.015625)" xlink:href="#DejaVuSans-8722"/>
     <use transform="translate(374.614258 0.015625)" xlink:href="#DejaVuSans-48"/>
     <use transform="translate(438.237305 0.015625)" xlink:href="#DejaVuSans-46"/>
     <use transform="translate(470.024414 0.015625)" xlink:href="#DejaVuSans-52"/>
     <use transform="translate(533.647461 0.015625)" xlink:href="#DejaVuSans-52"/>
     <use transform="translate(597.270508 0.015625)" xlink:href="#DejaVuSans-55"/>
     <use transform="translate(660.893555 0.015625)" xlink:href="#DejaVuSans-53"/>
     <use transform="translate(724.516602 0.015625)" xlink:href="#DejaVuSans-54"/>
     <use transform="translate(788.139648 0.015625)" xlink:href="#DejaVuSans-53"/>
     <use transform="translate(851.762695 0.015625)" xlink:href="#DejaVuSans-50"/>
     <use transform="translate(915.385742 0.015625)" xlink:href="#DejaVuSans-53"/>
     <use transform="translate(979.008789 0.015625)" xlink:href="#DejaVuSans-93"/>
    </g>
   </g>
   <g id="text_15">
    <!-- $w_1 = [1.6252754]$ -->
    <g transform="translate(171.2 261.612)scale(0.2 -0.2)">
     <use transform="translate(0 0.015625)" xlink:href="#DejaVuSans-Oblique-119"/>
     <use transform="translate(81.787109 -16.390625)scale(0.7)" xlink:href="#DejaVuSans-49"/>
     <use transform="translate(148.540039 0.015625)" xlink:href="#DejaVuSans-61"/>
     <use transform="translate(251.811523 0.015625)" xlink:href="#DejaVuSans-91"/>
     <use transform="translate(290.825195 0.015625)" xlink:href="#DejaVuSans-49"/>
     <use transform="translate(354.448242 0.015625)" xlink:href="#DejaVuSans-46"/>
     <use transform="translate(386.235352 0.015625)" xlink:href="#DejaVuSans-54"/>
     <use transform="translate(449.858398 0.015625)" xlink:href="#DejaVuSans-50"/>
     <use transform="translate(513.481445 0.015625)" xlink:href="#DejaVuSans-53"/>
     <use transform="translate(577.104492 0.015625)" xlink:href="#DejaVuSans-50"/>
     <use transform="translate(640.727539 0.015625)" xlink:href="#DejaVuSans-55"/>
     <use transform="translate(704.350586 0.015625)" xlink:href="#DejaVuSans-53"/>
     <use transform="translate(767.973633 0.015625)" xlink:href="#DejaVuSans-52"/>
     <use transform="translate(831.59668 0.015625)" xlink:href="#DejaVuSans-93"/>
    </g>
   </g>
   <g id="text_16">
    <!-- $w_2 = [0.24102665]$ -->
    <g transform="translate(267.23007 234.432)scale(0.2 -0.2)">
     <use transform="translate(0 0.015625)" xlink:href="#DejaVuSans-Oblique-119"/>
     <use transform="translate(81.787109 -16.390625)scale(0.7)" xlink:href="#DejaVuSans-50"/>
     <use transform="translate(148.540039 0.015625)" xlink:href="#DejaVuSans-61"/>
     <use transform="translate(251.811523 0.015625)" xlink:href="#DejaVuSans-91"/>
     <use transform="translate(290.825195 0.015625)" xlink:href="#DejaVuSans-48"/>
     <use transform="translate(354.448242 0.015625)" xlink:href="#DejaVuSans-46"/>
     <use transform="translate(386.157227 0.015625)" xlink:href="#DejaVuSans-50"/>
     <use transform="translate(449.780273 0.015625)" xlink:href="#DejaVuSans-52"/>
     <use transform="translate(513.40332 0.015625)" xlink:href="#DejaVuSans-49"/>
     <use transform="translate(577.026367 0.015625)" xlink:href="#DejaVuSans-48"/>
     <use transform="translate(640.649414 0.015625)" xlink:href="#DejaVuSans-50"/>
     <use transform="translate(704.272461 0.015625)" xlink:href="#DejaVuSans-54"/>
     <use transform="translate(767.895508 0.015625)" xlink:href="#DejaVuSans-54"/>
     <use transform="translate(831.518555 0.015625)" xlink:href="#DejaVuSans-53"/>
     <use transform="translate(895.141602 0.015625)" xlink:href="#DejaVuSans-93"/>
    </g>
   </g>
  </g>
 </g>
 <defs>
  <clipPath id="p34539c6579">
   <rect height="380.52" width="390.6" x="63" y="60.48"/>
  </clipPath>
 </defs>
</svg>
